<?xml version="1.0" encoding="UTF-8" standalone="no"?>
<svg
   version="1.1"
   width="1024"
   height="1024"
   id="svg2344"
   sodipodi:docname="x.svg"
   inkscape:version="1.2.2 (b0a8486541, 2022-12-01)"
   inkscape:export-filename="app_icon_16.png"
   inkscape:export-xdpi="2.4774191"
   inkscape:export-ydpi="2.4774191"
   xmlns:inkscape="http://www.inkscape.org/namespaces/inkscape"
   xmlns:sodipodi="http://sodipodi.sourceforge.net/DTD/sodipodi-0.dtd"
   xmlns="http://www.w3.org/2000/svg"
   xmlns:svg="http://www.w3.org/2000/svg">
  <defs
     id="defs2348" />
  <sodipodi:namedview
     id="namedview2346"
     pagecolor="#ffffff"
     bordercolor="#000000"
     borderopacity="0.25"
     inkscape:showpageshadow="2"
     inkscape:pageopacity="0.0"
     inkscape:pagecheckerboard="0"
     inkscape:deskcolor="#d1d1d1"
     showgrid="false"
     inkscape:zoom="0.80078125"
     inkscape:cx="274.73171"
     inkscape:cy="594.41951"
     inkscape:window-width="1920"
     inkscape:window-height="1008"
     inkscape:window-x="0"
     inkscape:window-y="0"
     inkscape:window-maximized="1"
     inkscape:current-layer="svg2344" />
  <g
     inkscape:groupmode="layer"
     id="layer1"
     inkscape:label="Layer 1">
    <rect
       style="fill:#f5c211;fill-opacity:1;stroke-width:37.7953;stroke-linecap:round;stroke-linejoin:round;paint-order:markers fill stroke"
       id="rect424"
       width="1024"
       height="1024"
       x="0"
       y="0"
       rx="50"
       ry="50"
       inkscape:label="rect424" />
  </g>
  <path
     d="m 549.67192,103.0159 c 34.42346,11.54747 32.31434,9.81333 60.77374,30.2553 19.23885,21.06893 31.6124,36.83061 47.49311,81.39073 12.65848,-0.92736 18.18078,-1.2578 25.64166,-0.04 31.17009,4.09287 60.32387,18.64279 79.55907,42.78896 9.65235,13.24969 15.89209,25.24003 20.51631,38.64183 14.48162,-0.0531 28.27609,-0.0573 41.62229,-0.10096 63.33944,-0.20421 63.33944,-0.20421 84.32393,17.61301 9.66149,9.63872 9.86294,11.09836 12.34252,22.51622 2.78956,229.81832 1.89556,232.45957 1.99383,430.22807 -0.23338,20.65137 0.67668,25.14579 -11.31538,48.52043 -12.1396,17.8185 -21.58085,21.95502 -44.01653,24.23141 -84.98584,1.30668 -157.81431,2.92499 -236.66375,0.001 -20.32643,-0.0973 -39.83164,-4.94815 -55.05979,-18.39516 -22.16166,-23.43236 -26.58585,-55.81712 -28.01181,-86.06749 -0.83281,-44.77035 5.25254,-92.29306 28.4756,-118.55073 16.2724,-16.30892 39.55308,-26.1728 63.13136,-26.95615 33.82045,3.38498 48.29514,18.19825 67.74751,36.52575 7.56015,6.58796 13.43696,9.29431 23.74657,9.33991 2.02739,-3.07572 2.7981,-4.95808 2.7555,-8.62586 -1.91564,-4.76931 -4.81742,-6.50663 -9.12867,-9.47022 -6.52016,-4.5093 -13.92362,-8.59518 -20.16711,-11.25794 2.24066,-2.54166 3.57576,-3.86414 7.00918,-4.6387 3.8076,-0.23804 6.77085,-0.46 10.53883,-0.6984 21.50215,-1.6877 21.50215,-1.6877 39.72308,-12.00847 1.28272,-4.17799 1.28272,-4.17799 0,-8.00563 -5.49382,-3.49848 -9.21118,-2.44163 -15.36541,-1.33429 -13.47281,3.00489 -26.1708,6.75602 -35.25424,6.19185 -15.34526,-1.10584 -28.62723,-3.42196 -42.96969,-8.8604 14.59434,-7.42053 23.18501,-12.41682 32.12767,-20.0141 12.36889,-10.37897 27.92753,-18.3745 42.84966,-22.86508 21.05588,-6.28648 43.4261,-16.65966 56.32713,-34.5087 5.04465,-5.84343 3.07229,-13.37646 1.39687,-14.67702 -8.10443,-1.81268 -14.00032,2.50888 -25.14341,13.34274 -14.80054,11.35092 -30.369,18.64099 -48.88997,22.68265 3.4334,-11.05229 8.27956,-19.69858 12.80086,-28.97353 6.18969,-12.67087 6.18969,-12.67087 9.09561,-18.07917 2.71631,-8.70903 3.50727,-16.27908 -3.9145,-15.4499 -7.36809,0.79389 -12.90569,13.29252 -16.3232,20.2228 -17.40871,31.7484 -38.97938,65.92763 -65.91416,76.97093 -11.90383,3.8483 -24.03614,6.76192 -36.24459,9.58196 -28.48438,5.82651 -60.08427,37.57965 -78.2976,31.78054 3.12478,-13.74915 7.12425,-22.98357 16.54198,-33.89912 25.64454,-30.32785 50.80372,-48.2607 78.44423,-71.50853 9.70503,-7.90583 17.53978,-18.59778 23.38096,-27.28486 2.05289,-2.93039 4.04115,-6.24823 5.62018,-8.94903 4.21764,-5.11845 8.98604,-7.32282 14.99983,-10.21554 21.75968,-11.00764 45.14971,-26.43845 53.77896,-49.61831 -1.16978,-5.84663 -9.766,-5.58506 -13.61935,-1.1675 -15.49892,16.85738 -32.08083,33.56652 -48.67361,33.60664 1.31146,-9.43448 0.68596,-19.70408 1.77185,-27.83661 1.26582,-9.07992 2.54319,-18.92383 3.68556,-26.93307 0.97762,-7.61267 1.05945,-13.16926 -1.83239,-20.36623 -3.37462,0.0412 -3.37462,0.0412 -6.9843,1.33428 -6.58695,13.38139 -7.5455,26.20035 -9.69069,39.44448 -5.38595,33.23118 -11.02814,62.1623 -39.17744,85.00786 -4.09687,3.77617 -7.35873,6.4174 -11.19667,7.64078 0.38513,-26.32697 1.56581,-52.32842 0.78236,-76.32952 -0.0853,-10.02393 -0.0853,-10.02393 -2.17922,-19.7382 -4.19058,-1.77903 -4.19058,-1.77903 -8.38113,0 -2.65217,6.75372 -3.37112,13.30585 -3.83591,20.46236 -0.8093,11.13375 -1.52617,20.75597 -2.33348,31.00066 -0.77474,9.68929 -1.68263,19.3531 -2.82288,29.01039 -1.53911,12.40077 -5.84022,26.09066 -12.659,34.02398 -14.21036,11.57117 -43.50613,58.20308 -53.77897,54.95541 -3.11312,-33.12571 -2.8107,-68.80696 -3.75299,-103.03655 -0.21905,-8.24646 -0.35075,-14.97956 -0.48808,-22.4723 -0.304,-18.44292 -0.304,-18.44292 1.88387,-27.34892 4.86048,-21.05811 23.61586,-39.03519 39.46665,-49.69649 21.15704,-16.11749 38.02999,-19.93703 51.67822,-40.45039 7.70507,-10.56824 14.14535,-16.31562 13.40087,-27.85949 0.14954,-8.38787 -12.98698,-5.3077 -16.54379,2.2581 -4.58599,8.04787 -9.3831,15.37759 -15.62733,22.3491 -6.91934,7.12855 -6.95398,7.18083 -18.33374,15.42753 -3.78054,-21.40755 -3.43252,-44.69409 -4.14968,-55.62944 -0.98562,-11.73252 -11.45183,-9.02491 -12.87153,0.91771 -4.04095,19.4129 -0.88052,32.28245 -0.70141,49.29126 1.5312,14.3838 -6.46912,18.76328 -13.70665,24.2671 -12.05735,11.10099 -9.99318,9.68608 -21.61208,22.10175 -5.23289,6.64687 -6.79167,5.12605 -8.24316,-2.58637 -1.56633,-20.43795 -1.46889,-23.02661 -0.91988,-39.46848 -0.0435,-27.23721 0.0302,-54.53691 -1.52171,-81.74685 -4.09014,-15.53786 -14.74282,-12.18747 -15.28359,2.95251 -0.95556,33.03588 -1.84841,64.46311 -2.70641,94.88534 -0.53206,16.02023 -0.0357,26.60695 -1.00504,40.35204 1.57633,8.19566 -2.7823,10.23538 -5.41719,3.39234 -2.81143,-6.26868 -7.17039,-11.11731 -11.64959,-16.36571 -12.6099,-15.38657 -15.61618,-29.36438 -18.44354,-48.34332 -1.0615,-7.21589 -2.05076,-12.89785 -3.04708,-19.53819 -0.926,-5.61058 -2.08982,-10.02685 -5.83537,-14.50989 -4.73763,-6.33816 -8.37354,-4.76299 -9.55996,9.41151 -0.55906,13.80552 0.28001,14.7948 2.4819,28.44395 1.05388,6.60216 8.69832,19.50344 -3.74247,14.10311 -12.29936,-6.60114 -17.06051,-13.41841 -24.97392,-20.68654 -7.27653,-7.15497 -4.83902,-7.03112 -12.4005,-15.01993 -9.99403,-9.46638 -20.34009,-1.57182 -11.54962,8.40918 l 17.10772,21.78812 c 9.52755,11.1181 24.82709,19.2959 36.65379,24.8126 22.72789,15.53389 40.18196,44.25937 45.94625,70.94241 1.51555,22.79931 0.2829,44.61443 -0.35332,65.77685 -0.39622,13.37675 -0.56786,26.72934 -0.47063,40.11224 0.0564,12.50761 0.69355,16.62959 -0.11587,29.11005 0.49964,22.86129 -8.65469,14.40017 -15.14187,5.82375 -11.43201,-15.96368 -4.9266,-7.80799 -15.54385,-23.72363 -5.39362,-10.54165 -7.60876,-16.9214 -7.86297,-24.10128 -0.47176,-10.19272 -0.90762,-19.20578 -1.38412,-28.67823 -0.56843,-10.8061 -1.33374,-19.66145 -2.18476,-29.42816 1.54308,-13.51464 -15.23117,-23.0506 -15.22354,-3.85559 0.0166,9.15709 0.69249,17.48031 0.72541,26.06729 0.0209,10.86389 0.7039,16.72003 0.74143,26.60778 -0.51402,15.8892 -8.44666,10.43838 -15.31768,2.36915 -11.48362,-12.97292 -18.13365,-16.68222 -35.66628,-36.87365 -8.29731,-9.63811 -6.40841,-13.69873 -4.80169,-21.9582 5.24421,-10.96307 10.88756,-22.43882 14.49237,-32.93988 2.76398,-8.31363 5.22117,-17.38789 5.32551,-24.51729 0.87807,-8.93351 -9.82324,-19.49001 -12.49632,-9.15164 -3.1493,21.46912 -4.1259,27.84663 -11.90423,42.70417 -9.23912,10.93271 -14.69475,14.63229 -19.21902,2.82065 -4.81068,-22.17433 -5.00075,-35.2081 -8.36817,-56.13793 -1.22626,-5.10576 -0.86623,-11.33906 -3.27622,-14.84298 -4.98355,-0.9821 -11.08884,-3.68971 -11.08627,12.62028 2.07211,27.26185 4.17288,28.42335 9.12386,55.3561 0.43876,13.45737 -4.62965,15.79108 -15.25641,7.06188 l -24.8006,-17.78435 c -6.24808,-5.21641 -11.77505,-10.54605 -17.08419,-16.64195 -9.04901,-12.55482 -18.52992,-4.99078 -10.82777,9.25734 13.14912,16.25526 18.99962,19.04545 32.15762,27.94956 8.933,5.87298 20.46124,15.27049 30.20786,19.75253 13.30105,6.18987 19.9467,12.35018 27.71203,24.21239 16.96215,18.27193 22.69411,25.38996 50.78562,48.42076 13.20067,12.71376 27.25795,23.39529 37.07987,36.23225 17.48312,19.82439 10.75127,30.84284 -0.36553,24.22582 -25.90173,-17.33326 -54.68186,-24.65863 -85.15913,-31.40235 -39.68599,-8.78996 -39.68599,-8.78996 -51.29626,-21.80181 -6.8842,-12.20489 -9.59673,-25.67535 -12.54682,-39.11254 -5.09924,-19.91331 -24.21353,-28.59136 -20.14644,-16.30866 9.45708,16.89736 8.16315,21.30727 11.25448,30.90025 -2.82914,17.25397 -8.65763,13.07247 -22.65332,-2.04372 -15.32339,-18.65913 -22.5138,-26.08678 -27.13646,-40.396 -3.2099,-12.4118 -13.34558,-7.61895 -13.455,1.90667 3.12424,11.81494 4.71873,12.82494 10.10453,22.08099 5.9781,9.96664 8.63882,11.39758 14.55768,20.59252 13.23898,11.55812 15.09452,17.53889 -6.0197,13.78907 -19.75937,-5.06655 -19.12583,-8.62945 -29.40352,-13.2521 -9.9674,-6.15897 -13.6171,1.65123 -7.74817,9.4181 16.81269,12.91738 22.8973,15.06872 43.91323,16.47629 10.76095,0.9086 30.1624,1.64808 40.94321,7.50199 12.02906,13.24586 24.7557,19.38633 36.36455,20.58728 25.50405,-0.89638 22.98854,2.74435 11.30571,9.22235 -26.51662,10.66897 -52.28536,11.52549 -79.6208,2.66856 -11.03738,-2.84822 -13.26772,8.17983 -6.63506,13.59291 14.45686,7.60978 30.20161,9.16251 46.35817,9.84027 13.95717,-0.24717 25.7578,-2.63308 38.93737,-7.33852 20.15174,-7.11178 38.49844,-7.45008 59.62829,-4.08621 33.78659,9.27813 32.82652,10.37216 50.63431,22.86491 17.83899,15.97434 16.48591,18.43414 19.05252,54.13839 -0.67649,56.94403 2.01628,75.39595 -14.8266,126.10663 -11.10415,29.09874 -25.87194,33.50563 -47.87595,35.72511 -87.18409,1.55705 -173.8752,2.38309 -256.14995,0.82002 -17.17413,-0.58141 -28.65539,-4.99961 -40.98754,-16.37768 -9.76236,-10.0624 -15.58548,-30.7023 -15.89362,-44.2412 -0.39501,-137.63524 1.1359,-275.45246 0.69433,-397.29112 -4.607657,-57.48909 4.09132,-69.80928 35.42429,-82.67549 26.33037,-6.41742 24.44138,-4.43107 51.12784,-5.15828 46.45658,-1.08879 37.74977,-0.92183 51.76292,-1.38849 11.50003,-26.31658 14.73716,-35.556 43.61528,-56.12523 10.76915,-5.80613 24.42929,-13.10953 43.15172,-18.48803 17.29894,-4.79973 16.96317,-4.91024 38.68235,-8.95505 9.72234,-24.44905 12.05283,-38.00365 31.8101,-58.60483 23.46982,-26.21103 48.34984,-38.79808 76.75588,-46.12811 26.76461,-4.461149 53.67884,-3.89857 76.18937,-0.13848 z"
     fill="#5f4fb9"
     id="path2"
     sodipodi:nodetypes="ccccccccccccccccccccccccccccccccccccccccccccccccccccccccccccccccccccccccccccccccccccccccccccccccccccccccccccccccccccccccccccccccccccccccccccccccccccccccccccccccccccccccccc"
     style="stroke-width:1.36519" />
  <path
     d="m 307.38376,128.56344 c 16.33032,0.65374 29.82463,2.45262 41.71338,13.94866 11.67033,15.58257 10.894,14.69316 11.31129,30.78733 -0.50399,5.92328 -0.9702,7.71926 -1.67657,13.70279 -0.94582,4.3729 -1.60931,5.76327 -5.30773,8.97986 -36.7132,9.35254 -53.51331,12.84782 -82.53572,32.119 -20.91675,17.92417 -24.18481,21.28556 -40.38761,50.606 -22.66562,0.24173 -42.82549,0.34296 -63.43953,0.61801 -21.64075,-0.16152 -40.98811,4.87397 -54.63102,14.77211 -7.17179,5.73406 -7.94948,7.33203 -10.93081,11.29536 -1.10559,-22.58154 -0.88039,-41.85403 -0.5367,-62.38246 0.15909,-22.57497 -0.0474,-43.19259 0.0858,-63.52793 0.10577,-14.13958 0.64022,-26.8533 10.89417,-37.95514 8.46505,-6.27151 11.69765,-7.76681 26.05989,-11.80995 58.01332,-0.75781 118.53337,-1.12714 169.38122,-1.15364 z"
     fill="#8460dd"
     id="path4"
     sodipodi:nodetypes="ccccccccccccccc"
     style="stroke-width:1.36519;fill:#8486dd;fill-opacity:1" />
  <path
     d="m 876.37445,234.60454 c 10.83632,0.78888 24.82849,-0.40096 36.35307,11.81995 2.74257,3.2133 7.96524,11.799 9.41465,30.28442 0.77682,15.30495 0.90559,16.9104 1.51271,26.81566 -24.99277,-20.38538 -20.84265,-18.0085 -55.79247,-22.35722 -33.63668,-1.40264 -27.06298,-0.83734 -71.64362,-0.14821 -9.99162,-18.33172 -8.6312,-18.45243 -16.96134,-31.30282 -3.88845,-5.58674 -7.31242,-10.40419 -10.91253,-15.19 62.19467,0.11804 65.75826,0.0245 108.02953,0.0781 z"
     fill="#5649ae"
     id="path6"
     sodipodi:nodetypes="ccccccccc"
     style="stroke-width:1.36519;fill:#8486dd;fill-opacity:1" />
  <path
     d="m 478.95042,845.1617 c 3.39875,-10.38114 9.96279,-6.89274 11.29309,4.54035 -0.92424,18.77653 0.66282,22.54069 -19.66351,32.74837 -16.15369,7.06191 -21.69129,12.9789 -24.77471,14.47503 -16.75361,11.77894 -24.19063,17.31286 -23.9352,7.64075 2.44224,-11.89539 9.57615,-20.47936 32.47311,-34.21012 16.91418,-8.65439 18.79214,-13.58033 24.60722,-25.19438 z"
     fill="#484493"
     id="path12"
     sodipodi:nodetypes="ccccccc"
     style="stroke-width:1.36519" />
  <path
     d="m 540.60286,843.68873 c 8.02874,8.96834 16.73803,16.6413 27.32599,22.76606 14.42146,8.51001 23.09547,19.36062 29.94512,34.02397 0.57488,6.61393 -10.70797,-2.1685 -12.39712,-3.41907 -10.52077,-7.47371 -19.43994,-13.54517 -31.29365,-18.88632 -5.81138,-2.1643 -9.47658,-3.41966 -12.51088,-4.72929 -8.37464,-4.25908 -7.23161,-14.22208 -7.52992,-22.08328 0.45645,-10.61808 1.06964,-12.97532 6.46046,-7.67207 z"
     fill="#464290"
     id="path14"
     sodipodi:nodetypes="cccccccc"
     style="stroke-width:1.36519" />
  <path
     d="m 404.20227,871.81488 c -8.28008,7.96556 -9.40513,9.05878 -18.39313,13.61877 -12.90987,5.91137 -23.40398,8.17871 -42.50367,9.27195 -14.22725,-0.48229 -11.73799,-7.55455 -5.04231,-12.43154 13.03748,-8.24881 24.1128,-12.00332 39.15964,-16.34322 l 16.13912,-3.6561 c 11.45284,-2.13948 20.13861,0.15756 10.64035,9.54014 z"
     fill="#47438e"
     id="path16"
     sodipodi:nodetypes="ccccccc"
     style="stroke-width:1.36519" />
  <path
     d="m 620.1591,861.26055 c 34.34711,5.24378 44.45384,6.55919 67.11363,27.20975 4.51081,4.0956 5.60078,8.39711 -7.2867,6.5329 -18.1627,-1.73943 -51.74568,-10.21866 -63.97138,-23.47187 -9.06801,-9.29374 -5.91062,-11.78216 4.14445,-10.27078 z"
     fill="#464293"
     id="path18"
     sodipodi:nodetypes="ccccc"
     style="stroke-width:1.36519" />
  <path
     d="m 521.91992,898.22718 c 7.80169,7.30983 7.11915,12.6638 7.15888,17.76252 -0.47378,7.38717 -3.18861,10.34717 -8.98403,5.95985 -6.7658,-7.69621 -9.64501,-14.12692 -11.08194,-21.59761 -0.93702,-14.65796 7.52712,-7.18825 12.90709,-2.12476 z"
     fill="#48438e"
     id="path48"
     sodipodi:nodetypes="ccccc"
     style="display:inline;stroke-width:1.36519" />
</svg>
