<?xml version="1.0" encoding="UTF-8" standalone="no"?>
<svg
   version="1.1"
   width="1024"
   height="1024"
   id="svg2344"
   sodipodi:docname="io.github.toCase.Birchflow.svg"
   inkscape:version="1.2.2 (b0a8486541, 2022-12-01)"
   inkscape:export-filename="../src/img/app_icon.png"
   inkscape:export-xdpi="48"
   inkscape:export-ydpi="48"
   xmlns:inkscape="http://www.inkscape.org/namespaces/inkscape"
   xmlns:sodipodi="http://sodipodi.sourceforge.net/DTD/sodipodi-0.dtd"
   xmlns="http://www.w3.org/2000/svg"
   xmlns:svg="http://www.w3.org/2000/svg">
  <defs
     id="defs2348" />
  <sodipodi:namedview
     id="namedview2346"
     pagecolor="#ffffff"
     bordercolor="#000000"
     borderopacity="0.25"
     inkscape:showpageshadow="2"
     inkscape:pageopacity="0.0"
     inkscape:pagecheckerboard="0"
     inkscape:deskcolor="#d1d1d1"
     showgrid="false"
     inkscape:zoom="0.80078125"
     inkscape:cx="274.73171"
     inkscape:cy="594.41951"
     inkscape:window-width="1920"
     inkscape:window-height="1008"
     inkscape:window-x="0"
     inkscape:window-y="0"
     inkscape:window-maximized="1"
     inkscape:current-layer="layer2" />
  <g
     inkscape:groupmode="layer"
     id="layer2"
     inkscape:label="Layer 2"
     style="display:inline">
    <rect
       style="display:inline;fill:#6a327d;fill-opacity:1;stroke-width:37.7953;stroke-linecap:round;stroke-linejoin:round;paint-order:markers fill stroke"
       id="rect349"
       width="1024"
       height="1024"
       x="0"
       y="0"
       rx="100"
       ry="100" />
  </g>
  <path
     d="m 546.92882,132.79636 c 31.9169,10.70663 29.96136,9.09877 56.34847,28.05224 17.83796,19.53479 29.31053,34.14877 44.03487,75.46422 11.73675,-0.85984 16.85694,-1.16622 23.77455,-0.0371 28.90043,3.79484 55.93136,17.2853 73.76594,39.67326 8.94951,12.2849 14.7349,23.40216 19.0224,35.8281 13.42713,-0.0492 26.21715,-0.0531 38.59154,-0.0936 58.72735,-0.18934 58.72735,-0.18934 78.18384,16.33051 8.95798,8.93687 9.14476,10.29022 11.44379,20.87668 2.58644,213.08396 1.75754,215.53289 1.84865,398.90075 -0.21639,19.14763 0.62741,23.31479 -10.49144,44.98739 -11.25565,16.52103 -20.00943,20.35635 -40.81145,22.46698 -78.79755,1.21154 -146.32297,2.71201 -219.43095,9.3e-4 -18.84635,-0.0902 -36.93128,-4.58785 -51.05058,-17.0557 -20.54795,-21.72612 -24.64999,-51.75277 -25.97212,-79.80044 -0.77217,-41.51037 4.87008,-85.57268 26.40214,-109.91838 15.08751,-15.12138 36.673,-24.26701 58.53441,-24.99332 31.3578,3.1385 44.77851,16.87313 62.81444,33.8661 7.00966,6.10825 12.45854,8.61754 22.01745,8.65982 1.87977,-2.85176 2.59436,-4.59705 2.55486,-7.99776 -1.77615,-4.42203 -4.46664,-6.03285 -8.46396,-8.78064 -6.04539,-4.18096 -12.90977,-7.96932 -18.69863,-10.43819 2.0775,-2.35659 3.31539,-3.58277 6.4988,-4.30093 3.53035,-0.22071 6.27783,-0.4265 9.77144,-0.64755 19.93646,-1.5648 19.93646,-1.5648 36.83062,-11.13406 1.18932,-3.87377 1.18932,-3.87377 0,-7.4227 -5.09378,-3.24373 -8.54046,-2.26384 -14.24657,-1.23713 -12.49178,2.78609 -24.26516,6.26408 -32.68718,5.74099 -14.22789,-1.02532 -26.54272,-3.17279 -39.84083,-8.21523 13.53164,-6.8802 21.49678,-11.51268 29.78828,-18.55676 11.46824,-9.62322 25.89397,-17.03655 39.72954,-21.20014 19.52268,-5.82873 40.264,-15.44658 52.22564,-31.99593 4.67732,-5.41794 2.84858,-12.40245 1.29515,-13.60831 -7.5143,-1.68068 -12.98088,2.3262 -23.31258,12.37119 -13.72283,10.52439 -28.15766,17.28363 -45.33002,21.03099 3.1834,-10.24751 7.67668,-18.26421 11.86876,-26.8638 5.73898,-11.74823 5.73898,-11.74823 8.43331,-16.76272 2.51852,-8.07488 3.25188,-15.09371 -3.62946,-14.32491 -6.83158,0.73608 -11.96596,12.32462 -15.13462,18.75026 -16.14109,29.43662 -36.14108,61.12707 -61.11459,71.36625 -11.03704,3.56808 -22.28593,6.26955 -33.60542,8.88424 -26.41027,5.40225 -55.7092,34.84327 -72.59632,29.46642 2.89725,-12.74799 6.6055,-21.31 15.33747,-31.43073 23.77722,-28.11951 47.10442,-44.74657 72.73227,-66.30159 8.99835,-7.33017 16.26261,-17.24358 21.67846,-25.2981 1.90341,-2.71701 3.7469,-5.79326 5.21095,-8.2974 3.91053,-4.74575 8.33171,-6.78961 13.90761,-9.47169 20.17523,-10.20611 41.86211,-24.51332 49.86301,-46.00532 -1.0846,-5.42091 -9.05488,-5.17838 -12.62765,-1.08249 -14.37035,15.6299 -29.74484,31.12235 -45.12941,31.15955 1.21596,-8.7475 0.63601,-18.26932 1.64283,-25.80967 1.17365,-8.41876 2.35801,-17.54588 3.41719,-24.97192 0.90644,-7.05835 0.98231,-12.21033 -1.69896,-18.88325 -3.12889,0.0382 -3.12889,0.0382 -6.47573,1.23712 -6.10732,12.40702 -6.99607,24.29256 -8.98506,36.57231 -4.99377,30.81143 -10.22512,57.63591 -36.32471,78.81796 -3.79856,3.5012 -6.82291,5.95011 -10.38138,7.08441 0.35708,-24.40996 1.45179,-48.51809 0.72539,-70.77154 -0.0791,-9.29403 -0.0791,-9.29403 -2.02054,-18.30095 -3.88544,-1.64949 -3.88544,-1.64949 -7.77085,0 -2.45905,6.26194 -3.12565,12.33698 -3.5566,18.97238 -0.75037,10.32304 -1.41504,19.24461 -2.16357,28.74333 -0.71832,8.98376 -1.5601,17.94389 -2.61733,26.89798 -1.42704,11.4978 -5.41496,24.19085 -11.73723,31.5465 -13.17562,10.72861 -40.3382,53.96499 -49.86302,50.9538 -2.88644,-30.71364 -2.60604,-63.79674 -3.47972,-95.53388 -0.20309,-7.64599 -0.32521,-13.88881 -0.45254,-20.83597 -0.28186,-17.09998 -0.28186,-17.09998 1.7467,-25.35749 4.50656,-19.52475 21.89626,-36.19282 36.59286,-46.07781 19.61648,-14.94388 35.26082,-18.4853 47.91525,-37.50497 7.14402,-9.7987 13.11535,-15.12759 12.42508,-25.83088 0.13865,-7.7771 -12.04133,-4.92122 -15.33915,2.09367 -4.25206,7.46186 -8.69986,14.25786 -14.48942,20.72174 -6.4155,6.60948 -6.44762,6.65795 -16.99876,14.30416 -3.50525,-19.84874 -3.18257,-41.43966 -3.84751,-51.57874 -0.91386,-10.87821 -10.61796,-8.36776 -11.93429,0.85088 -3.7467,17.99934 -0.8164,29.93179 -0.65033,45.70209 1.4197,13.33643 -5.99807,17.39702 -12.7086,22.50008 -11.17938,10.29266 -9.26552,8.98078 -20.03838,20.49239 -4.85186,6.16288 -6.29713,4.7528 -7.64293,-2.39804 -1.45228,-18.94975 -1.36193,-21.34991 -0.8529,-36.59456 -0.0403,-25.25391 0.028,-50.56577 -1.41091,-75.7944 -3.79231,-14.40646 -13.66931,-11.30003 -14.1707,2.73752 -0.88598,30.63035 -1.71382,59.76919 -2.50934,87.97621 -0.49332,14.8537 -0.0331,24.66955 -0.93186,37.41378 1.46155,7.59889 -2.57971,9.49008 -5.02274,3.14532 -2.60671,-5.81222 -6.64827,-10.30779 -10.80132,-15.17403 -11.6917,-14.26618 -14.47907,-27.22619 -17.10056,-44.82317 -0.98421,-6.69046 -1.90143,-11.95868 -2.8252,-18.1155 -0.85858,-5.20205 -1.93765,-9.29674 -5.41047,-13.45335 -4.39266,-5.87664 -7.76382,-4.41617 -8.86385,8.72621 -0.51835,12.80026 0.25963,13.71751 2.30118,26.37278 0.97714,6.12142 8.06495,18.08329 -3.46996,13.07619 -11.40377,-6.12048 -15.81824,-12.44134 -23.15543,-19.18024 -6.74668,-6.63398 -4.48666,-6.51914 -11.49755,-13.92624 -9.26631,-8.77708 -18.85901,-1.45737 -10.70863,7.79686 l 15.86202,20.2016 c 8.83379,10.30853 23.01929,17.89086 33.98482,23.00586 21.07295,14.40278 37.25609,41.03659 42.60065,65.77669 1.40519,21.13917 0.2623,41.3658 -0.32759,60.98727 -0.36737,12.40271 -0.52651,24.78303 -0.43636,37.19144 0.0523,11.59686 0.64305,15.4187 -0.10744,26.99039 0.46326,21.19663 -8.02449,13.35161 -14.0393,5.39969 -10.59959,-14.80128 -4.56787,-7.23945 -14.41202,-21.99618 -5.00088,-9.77406 -7.05472,-15.68926 -7.29042,-22.34633 -0.43741,-9.45053 -0.84153,-17.8073 -1.28334,-26.59001 -0.52704,-10.01925 -1.23662,-18.22979 -2.02567,-27.28533 1.43072,-12.53056 -14.12211,-21.37216 -14.11503,-3.57484 0.0154,8.49031 0.64206,16.20747 0.67259,24.16918 0.0194,10.07283 0.65264,15.50255 0.68744,24.67032 -0.47659,14.73222 -7.83161,9.6783 -14.20232,2.19664 -10.64743,-12.02829 -16.81324,-15.4675 -33.06922,-34.18867 -7.69313,-8.93631 -5.94178,-12.70125 -4.45205,-20.3593 4.86235,-10.16479 10.09478,-20.80493 13.4371,-30.54135 2.56272,-7.70827 4.84099,-16.12178 4.93773,-22.73205 0.81413,-8.28301 -9.10795,-18.07083 -11.58639,-8.48525 -2.91999,19.90583 -3.82547,25.81896 -11.03742,39.59464 -8.56637,10.13663 -13.62474,13.56683 -17.81958,2.61526 -4.46039,-20.55969 -4.63662,-32.6444 -7.75883,-52.05021 -1.13697,-4.73398 -0.80316,-10.5134 -3.03766,-13.76218 -4.62068,-0.91059 -10.28141,-3.42104 -10.27902,11.70132 1.92123,25.27677 3.86903,26.35369 8.4595,51.32532 0.40681,12.47746 -4.29254,14.64124 -14.14551,6.54766 L 320.3441,429.19189 c -5.79312,-4.83658 -10.91764,-9.77813 -15.84019,-15.43016 -8.39011,-11.64063 -17.18066,-4.62737 -10.03934,8.58326 12.19166,15.07163 17.61615,17.65865 29.81604,25.9144 8.28254,5.44533 18.97135,14.15856 28.00826,18.31424 12.33253,5.73915 18.49427,11.45089 25.69416,22.44935 15.72705,16.94145 21.04163,23.54117 47.08764,44.89497 12.23946,11.788 25.27315,21.69175 34.37988,33.59398 16.21008,18.38086 9.96841,28.597 -0.33891,22.4618 -24.01568,-16.07113 -50.70017,-22.8631 -78.95822,-29.11577 -36.79624,-8.14991 -36.79624,-8.14991 -47.5611,-20.2143 -6.38292,-11.31618 -8.89794,-23.80578 -11.63322,-36.26453 -4.72793,-18.46332 -22.45041,-26.50947 -18.67946,-15.12114 8.76845,15.66697 7.56874,19.75577 10.43498,28.65023 -2.62314,15.99761 -8.02722,12.12059 -21.00381,-1.89491 -14.20761,-17.30045 -20.87445,-24.18725 -25.16051,-37.45454 -2.97616,-11.50802 -12.37381,-7.06417 -12.47526,1.76784 2.89674,10.95463 4.37513,11.89108 9.36876,20.47315 5.5428,9.24091 8.00978,10.56766 13.49766,19.09306 12.27497,10.71651 13.9954,16.26179 -5.58138,12.78501 -18.32058,-4.69762 -17.73317,-8.00109 -27.26248,-12.28714 -9.24162,-5.7105 -12.62557,1.531 -7.18399,8.73232 15.58847,11.97679 21.23002,13.97148 40.71567,15.27656 9.97738,0.84243 27.96611,1.52807 37.96191,6.95572 11.15315,12.28136 22.9531,17.97471 33.71664,19.08821 23.64696,-0.83111 21.31462,2.54452 10.48248,8.55082 -24.5858,9.8921 -48.47817,10.68625 -73.82317,2.47424 -10.23368,-2.64082 -12.30162,7.58421 -6.15192,12.60314 13.40417,7.05567 28.00246,8.49533 42.98257,9.12374 12.94087,-0.22917 23.88224,-2.44135 36.10213,-6.80416 18.68438,-6.59393 35.69515,-6.9076 55.28642,-3.78867 31.3264,8.60254 30.43624,9.61691 46.94735,21.19999 16.54003,14.81116 15.28548,17.09185 17.6652,50.19627 -0.62723,52.79761 1.86946,69.90595 -13.74699,116.9241 -10.2956,26.9799 -23.98807,31.06589 -44.38984,33.12376 -80.83574,1.44367 -161.21439,2.20957 -237.49826,0.76031 -15.92358,-0.53907 -26.56883,-4.63556 -38.00301,-15.18513 -9.05151,-9.3297 -14.45061,-28.46669 -14.73632,-41.01975 -0.36624,-127.61324 1.05319,-255.39522 0.64378,-368.36212 -4.27215,-53.30299 3.7934,-64.72608 32.84485,-76.65543 24.41311,-5.95013 22.66167,-4.10841 47.40494,-4.78267 43.07382,-1.00951 35.001,-0.85471 47.99377,-1.28739 10.66265,-24.40032 13.66407,-32.96697 40.43941,-52.03844 9.98499,-5.38335 22.65046,-12.15495 40.00961,-17.14181 16.03931,-4.45023 15.72799,-4.5527 35.86567,-8.30298 9.0144,-22.66878 11.1752,-35.23639 29.49383,-54.33748 21.76086,-24.30246 44.82922,-35.97298 71.16686,-42.76927 24.81573,-4.13631 49.77019,-3.61469 70.6416,-0.12839 z"
     fill="#5f4fb9"
     id="path2"
     sodipodi:nodetypes="ccccccccccccccccccccccccccccccccccccccccccccccccccccccccccccccccccccccccccccccccccccccccccccccccccccccccccccccccccccccccccccccccccccccccccccccccccccccccccccccccccccccccccc"
     style="stroke-width:1.36519;fill:#f5c211;fill-opacity:1" />
  <path
     d="m 322.283,156.48364 c 15.14122,0.60614 27.65294,2.27403 38.676,12.93298 10.82055,14.44792 10.10075,13.62327 10.48765,28.54553 -0.46729,5.49198 -0.89955,7.15718 -1.55449,12.70502 -0.87695,4.05448 -1.49212,5.34361 -4.92124,8.32598 -34.03991,8.67153 -49.61671,11.9123 -76.52584,29.78024 -19.39369,16.61901 -22.42378,19.73564 -37.44676,46.92109 -21.01522,0.22413 -39.70713,0.31799 -58.82015,0.57301 -20.06497,-0.14976 -38.00354,4.51907 -50.65304,13.69647 -6.64957,5.31653 -7.37063,6.79814 -10.13487,10.47288 -1.02509,-20.93725 -0.81629,-38.8064 -0.49762,-57.84004 0.1475,-20.93116 -0.0439,-40.0475 0.0796,-58.90211 0.0981,-13.11 0.5936,-24.89796 10.10091,-35.19141 7.84866,-5.81485 10.84587,-7.20127 24.16232,-10.95 53.78905,-0.70263 109.9023,-1.04507 157.04764,-1.06964 z"
     fill="#8460dd"
     id="path4"
     sodipodi:nodetypes="ccccccccccccccc"
     style="fill:#f5c211;fill-opacity:1;stroke-width:1.36519" />
  <path
     d="m 849.84233,254.80329 c 10.04727,0.73144 23.02059,-0.37176 33.70601,10.95928 2.54286,2.97932 7.38524,10.93985 8.72911,28.07924 0.72026,14.19051 0.83965,15.67906 1.40256,24.86306 -23.1729,-18.90101 -19.32498,-16.6972 -51.72991,-20.72927 -31.18741,-1.3005 -25.09237,-0.77636 -66.42685,-0.13741 -9.26407,-16.99689 -8.00271,-17.10881 -15.72629,-29.02349 -3.60531,-5.17994 -6.77996,-9.6466 -10.11793,-14.08393 57.66593,0.10944 60.97004,0.0227 100.1633,0.0724 z"
     fill="#5649ae"
     id="path6"
     sodipodi:nodetypes="ccccccccc"
     style="fill:#f5c211;fill-opacity:1;stroke-width:1.36519" />
  <path
     d="m 481.35694,820.90236 c 3.15127,-9.62523 9.23735,-6.39084 10.47078,4.20974 -0.85694,17.40931 0.61456,20.89938 -18.2317,30.36378 -14.97745,6.54769 -20.11183,12.03383 -22.97073,13.42102 -15.53368,10.92125 -22.42917,16.05222 -22.19234,7.08439 2.26441,-11.02922 8.87886,-18.98815 30.10856,-31.71909 15.68257,-8.02422 17.42378,-12.59147 22.81543,-23.35984 z"
     fill="#484493"
     id="path12"
     sodipodi:nodetypes="ccccccc"
     style="stroke-width:1.36519;fill:#f5c211;fill-opacity:1" />
  <path
     d="m 538.52013,819.53665 c 7.44412,8.3153 15.51924,15.42955 25.33623,21.10833 13.37136,7.89035 21.41376,17.95087 27.76465,31.5465 0.53302,6.13233 -9.92826,-2.0106 -11.49441,-3.17011 -9.7547,-6.92951 -18.02441,-12.55887 -29.01499,-17.5111 -5.38822,-2.00671 -8.78654,-3.17066 -11.59989,-4.38493 -7.76484,-3.94895 -6.70504,-13.18649 -6.98163,-20.47527 0.42321,-9.84492 0.99175,-12.03051 5.99004,-7.11342 z"
     fill="#464290"
     id="path14"
     sodipodi:nodetypes="cccccccc"
     style="stroke-width:1.36519;fill:#f5c211;fill-opacity:1" />
  <path
     d="m 412.05162,845.61477 c -7.67716,7.38555 -8.72029,8.39916 -17.05382,12.62711 -11.96983,5.48093 -21.69981,7.58318 -39.40875,8.59681 -13.19128,-0.44717 -10.88328,-7.00446 -4.67515,-11.52633 12.08815,-7.64817 22.35702,-11.12929 36.30821,-15.15318 l 14.96394,-3.38988 c 10.6189,-1.98369 18.67221,0.14609 9.86557,8.84547 z"
     fill="#47438e"
     id="path16"
     sodipodi:nodetypes="ccccccc"
     style="stroke-width:1.36519;fill:#f5c211;fill-opacity:1" />
  <path
     d="m 612.28344,835.82896 c 31.84611,4.86195 41.21691,6.08158 62.22672,25.22846 4.18235,3.79738 5.19295,7.78567 -6.75612,6.0572 -16.84017,-1.61277 -47.97779,-9.47458 -59.31327,-21.76275 -8.40772,-8.61701 -5.48024,-10.92423 3.84267,-9.52291 z"
     fill="#464293"
     id="path18"
     sodipodi:nodetypes="ccccc"
     style="stroke-width:1.36519;fill:#f5c211;fill-opacity:1" />
  <path
     d="m 521.1976,870.10385 c 7.2336,6.77756 6.60076,11.74167 6.6376,16.46913 -0.43928,6.84927 -2.95643,9.59373 -8.32985,5.52588 -6.27315,-7.13581 -8.94271,-13.09826 -10.27501,-20.02497 -0.86879,-13.59063 6.97903,-6.66483 11.96726,-1.97004 z"
     fill="#48438e"
     id="path48"
     sodipodi:nodetypes="ccccc"
     style="display:inline;stroke-width:1.36519;fill:#f5c211;fill-opacity:1" />
</svg>
