<?xml version="1.0" encoding="UTF-8" standalone="no"?>
<svg
   version="1.1"
   width="1024"
   height="1024"
   id="svg2344"
   sodipodi:docname="app_icon.svg"
   inkscape:version="1.2.2 (b0a8486541, 2022-12-01)"
   inkscape:export-filename="app_icon_16.png"
   inkscape:export-xdpi="2.4774191"
   inkscape:export-ydpi="2.4774191"
   xmlns:inkscape="http://www.inkscape.org/namespaces/inkscape"
   xmlns:sodipodi="http://sodipodi.sourceforge.net/DTD/sodipodi-0.dtd"
   xmlns="http://www.w3.org/2000/svg"
   xmlns:svg="http://www.w3.org/2000/svg">
  <defs
     id="defs2348" />
  <sodipodi:namedview
     id="namedview2346"
     pagecolor="#ffffff"
     bordercolor="#000000"
     borderopacity="0.25"
     inkscape:showpageshadow="2"
     inkscape:pageopacity="0.0"
     inkscape:pagecheckerboard="0"
     inkscape:deskcolor="#d1d1d1"
     showgrid="false"
     inkscape:zoom="0.80078125"
     inkscape:cx="274.73171"
     inkscape:cy="544.46829"
     inkscape:window-width="1920"
     inkscape:window-height="1008"
     inkscape:window-x="0"
     inkscape:window-y="0"
     inkscape:window-maximized="1"
     inkscape:current-layer="svg2344" />
  <path
     d="m 555.92075,205.33344 c 25.90114,8.68862 24.31418,7.38381 45.72781,22.76491 14.47584,15.85284 23.78604,27.71236 35.73512,61.2406 9.52458,-0.69777 13.67971,-0.9464 19.29348,-0.0301 23.45322,3.07959 45.38932,14.02735 59.86241,32.19558 7.26269,9.96943 11.95764,18.9913 15.43703,29.07517 10.89636,-0.04 21.2757,-0.0431 31.31775,-0.076 47.65832,-0.15364 47.65832,-0.15364 63.44763,13.25251 7.26953,7.25244 7.4211,8.35071 9.28685,16.94182 2.09892,172.92159 1.42627,174.90894 1.50018,323.71537 -0.17558,15.53865 0.50917,18.92038 -8.51396,36.5081 -9.13419,13.40712 -16.23805,16.51955 -33.11926,18.23237 -63.94566,0.98318 -118.74379,2.20085 -178.07225,10e-4 -15.29416,-0.0732 -29.97041,-3.72312 -41.42849,-13.84102 -16.67504,-17.63115 -20.00392,-41.99833 -21.07685,-64.75954 -0.62663,-33.68642 3.95215,-69.44382 21.42582,-89.2008 12.2438,-12.27128 29.76081,-19.69313 47.50175,-20.28255 25.44744,2.54695 36.33858,13.69286 50.97508,27.48297 5.68846,4.95697 10.11033,6.9933 17.86756,7.02761 1.52546,-2.31425 2.10537,-3.73059 2.07332,-6.49034 -1.44138,-3.58855 -3.62475,-4.89576 -6.86866,-7.12565 -4.90595,-3.39291 -10.47651,-6.46725 -15.17429,-8.47078 1.68594,-1.91241 2.6905,-2.90748 5.2739,-3.49028 2.86495,-0.17911 5.09458,-0.34612 7.9297,-0.5255 16.17881,-1.26987 16.17881,-1.26987 29.88874,-9.0355 0.96515,-3.14363 0.96515,-3.14363 0,-6.02366 -4.13371,-2.63235 -6.93075,-1.83714 -11.56136,-1.00395 -10.13731,2.26096 -19.69162,5.08342 -26.52625,4.65892 -11.54619,-0.83207 -21.53991,-2.57478 -32.33157,-6.66681 10.98118,-5.58341 17.44503,-9.34275 24.17374,-15.05916 9.30669,-7.80941 21.01343,-13.82548 32.24125,-17.20431 15.84302,-4.73012 32.67499,-12.53519 42.38207,-25.96529 3.79573,-4.39675 2.31167,-10.06482 1.05103,-11.04339 -6.09798,-1.36391 -10.53421,1.88775 -18.91858,10.03944 -11.13632,8.54075 -22.85046,14.02599 -36.78614,17.06705 2.58338,-8.31605 6.22976,-14.82175 9.63172,-21.80048 4.65728,-9.5339 4.65728,-9.5339 6.84378,-13.60326 2.04382,-6.55291 2.63896,-12.24882 -2.94538,-11.62492 -5.54395,0.59734 -9.71059,10.00165 -12.28202,15.21618 -13.09879,23.88837 -29.32915,49.60575 -49.59561,57.91503 -8.95677,2.89557 -18.08545,5.08785 -27.27142,7.20973 -21.43242,4.38403 -45.20904,28.27596 -58.91324,23.91255 2.35116,-10.34523 5.36048,-17.29346 12.44663,-25.50663 19.29565,-22.81949 38.2261,-36.31266 59.02358,-53.80497 7.30233,-5.94856 13.1974,-13.99348 17.59247,-20.52988 1.54465,-2.2049 3.04067,-4.70133 4.22878,-6.73348 3.17346,-3.85127 6.76134,-5.5099 11.28627,-7.68645 16.37258,-8.28246 33.97188,-19.89302 40.46476,-37.33418 -0.88018,-4.39916 -7.3482,-4.20235 -10.24757,-0.87845 -11.6618,12.68394 -24.13849,25.25636 -36.62335,25.28655 0.98678,-7.09877 0.51614,-14.8259 1.33319,-20.94503 0.95243,-6.83198 1.91356,-14.23881 2.77311,-20.26518 0.73559,-5.72798 0.79716,-9.90891 -1.37874,-15.3241 -2.53915,0.031 -2.53915,0.031 -5.25517,1.00394 -4.9562,10.06853 -5.67744,19.71387 -7.29154,29.67911 -4.05254,25.00405 -8.29787,46.77261 -29.47817,63.96223 -3.0826,2.84129 -5.53691,4.82863 -8.42468,5.74914 0.28978,-19.80914 1.17815,-39.37334 0.58866,-57.43242 -0.0642,-7.54228 -0.0642,-7.54228 -1.63971,-14.85156 -3.1531,-1.33859 -3.1531,-1.33859 -6.30618,0 -1.99556,5.08168 -2.53653,10.01168 -2.88624,15.39643 -0.60894,8.37735 -1.14834,15.61737 -1.75578,23.32575 -0.58294,7.29049 -1.26606,14.5618 -2.12402,21.82821 -1.15806,9.33068 -4.39432,19.63132 -9.52497,25.60057 -10.69225,8.70647 -32.73519,43.79359 -40.46476,41.34996 -2.34239,-24.9247 -2.11484,-51.77224 -2.82385,-77.52752 -0.16482,-6.20487 -0.26391,-11.27103 -0.36725,-16.90878 -0.22874,-13.87695 -0.22874,-13.87695 1.41748,-20.57807 3.65716,-15.8447 17.76922,-29.37115 29.69578,-37.39299 15.91914,-12.12725 28.6148,-15.00118 38.8841,-30.43599 5.79751,-7.95183 10.64335,-12.27631 10.08318,-20.96223 0.11251,-6.31127 -9.77176,-3.99366 -12.448,1.69905 -3.45062,6.05544 -7.06009,11.57052 -11.75843,16.81607 -5.20629,5.36371 -5.23236,5.40305 -13.7948,11.6081 -2.84458,-16.10763 -2.58272,-33.62906 -3.12234,-41.85712 -0.7416,-8.82786 -8.61666,-6.79058 -9.68488,0.69051 -3.04052,14.6068 -0.66253,24.2902 -0.52776,37.08809 1.15211,10.82277 -4.86755,14.11801 -10.31326,18.25924 -9.07228,8.35269 -7.51914,7.28807 -16.26152,16.62996 -3.93736,5.00129 -5.11024,3.85698 -6.20238,-1.94606 -1.17854,-15.37807 -1.10523,-17.32584 -0.69214,-29.69716 -0.0327,-20.49402 0.0228,-41.03506 -1.14498,-61.50857 -3.07752,-11.6911 -11.0929,-9.17018 -11.49978,2.22155 -0.719,24.8571 -1.3908,48.50381 -2.03638,71.39433 -0.40034,12.05406 -0.0268,20.01979 -0.75622,30.36198 1.18608,6.16663 -2.09347,7.70138 -4.07605,2.55248 -2.11539,-4.71672 -5.39518,-8.36497 -8.76546,-12.314 -9.48803,-11.57727 -11.75004,-22.09456 -13.87743,-36.37484 -0.7987,-5.42943 -1.54303,-9.7047 -2.29271,-14.70106 -0.69674,-4.22156 -1.57243,-7.54448 -4.39068,-10.91765 -3.56472,-4.769 -6.30048,-3.5838 -7.19317,7.08148 -0.42066,10.38765 0.21068,11.13202 1.86744,21.402 0.79297,4.96765 6.54486,14.67493 -2.81593,10.61157 -9.25438,-4.96688 -12.83679,-10.09637 -18.79106,-15.56511 -5.47506,-5.3836 -3.64101,-5.29041 -9.33047,-11.30141 -7.51978,-7.12276 -15.30444,-1.18268 -8.69025,6.3273 l 12.87231,16.39397 c 7.1688,8.36557 18.68058,14.51877 27.57931,18.66969 17.10109,11.68812 30.23401,33.30195 34.57121,53.379 1.14034,17.15483 0.21287,33.56912 -0.26584,49.4923 -0.29813,10.06503 -0.42727,20.11189 -0.35411,30.18155 0.0424,9.41107 0.52183,12.51255 -0.0872,21.9032 0.37595,17.20145 -6.51202,10.83507 -11.39314,4.38194 -8.60176,-12.01151 -3.70692,-5.87494 -11.69562,-17.85031 -4.05831,-7.93182 -5.72505,-12.73212 -5.91632,-18.13445 -0.35497,-7.66929 -0.68291,-14.45096 -1.04145,-21.57829 -0.4277,-8.13081 -1.00354,-14.79382 -1.64387,-22.14255 1.16106,-10.16878 -11.46035,-17.34391 -11.45461,-2.90105 0.0124,6.89004 0.52105,13.15266 0.54583,19.61374 0.0157,8.17428 0.52962,12.58061 0.55787,20.02042 -0.38677,11.95547 -6.35551,7.85412 -11.52545,1.78262 -8.64059,-9.76118 -13.64425,-12.55217 -26.83628,-27.74475 -6.24312,-7.25198 -4.82187,-10.3073 -3.61292,-16.52195 3.94588,-8.24891 8.1921,-16.88358 10.90446,-24.78487 2.07969,-6.25539 3.92854,-13.08312 4.00705,-18.44747 0.66069,-6.72182 -7.39127,-14.66483 -9.40257,-6.88595 -2.36962,16.15395 -3.10444,20.95256 -8.95707,32.13179 -6.95176,8.22606 -11.05673,11.00973 -14.46091,2.12233 -3.61968,-16.68458 -3.7627,-26.49154 -6.29644,-42.23971 -0.92267,-3.84172 -0.65177,-8.53182 -2.46511,-11.16827 -3.74977,-0.73896 -8.34356,-2.77624 -8.34162,9.49585 1.55911,20.51256 3.13979,21.3865 6.86504,41.65144 0.33014,10.12569 -3.48347,11.88164 -11.47933,5.31355 l -18.66065,-13.38143 c -4.70122,-3.92497 -8.85987,-7.93514 -12.85462,-12.52186 -6.80871,-9.44659 -13.94241,-3.7552 -8.1471,6.96548 9.89375,12.2309 14.29583,14.33031 24.19627,21.03001 6.72143,4.41899 15.39559,11.48993 22.72921,14.86234 10.00808,4.65743 15.00845,9.29262 20.85129,18.21807 12.76279,13.74829 17.07567,19.1041 38.21249,36.4331 9.93254,9.56618 20.50962,17.60326 27.8999,27.26214 13.15478,14.91641 8.08955,23.20699 -0.27504,18.22817 -19.48916,-13.04203 -41.14411,-18.55383 -64.07605,-23.62799 -29.86081,-6.61381 -29.86081,-6.61381 -38.5967,-16.40428 -5.17985,-9.18329 -7.22083,-19.31883 -9.44057,-29.42934 -3.8368,-14.98332 -18.21892,-21.51292 -15.15873,-12.27108 7.11577,12.71402 6.14218,16.03217 8.46818,23.25019 -2.12873,12.98236 -6.51424,9.83608 -17.04498,-1.53775 -11.52973,-14.03964 -16.93999,-19.62841 -20.41821,-30.39506 -2.41521,-9.33897 -10.04157,-5.73271 -10.12391,1.43463 2.35076,8.88989 3.55051,9.64984 7.60293,16.61434 4.49808,7.49917 6.50009,8.57585 10.9536,15.49438 9.96136,8.69665 11.35752,13.19673 -4.5294,10.37527 -14.86748,-3.81221 -14.39079,-6.49303 -22.124,-9.97125 -7.49974,-4.63417 -10.24588,1.24244 -5.82994,7.08644 12.65032,9.71939 17.22855,11.33812 33.04151,12.39721 8.09683,0.68366 22.69502,1.24007 30.80679,5.64471 9.05099,9.96654 18.62686,14.58681 27.36168,15.49043 19.18995,-0.67446 17.29721,2.06492 8.50673,6.93915 -19.95183,8.02763 -39.34094,8.6721 -59.90886,2.00789 -8.30483,-2.14307 -9.983,6.15473 -4.99241,10.22768 10.87774,5.72581 22.72452,6.89413 34.88115,7.40409 10.50176,-0.18598 19.38088,-1.98119 29.29754,-5.5217 15.16271,-5.3511 28.96728,-5.60564 44.86595,-3.07458 25.42196,6.98112 24.69957,7.8043 38.09864,17.20419 13.42254,12.01952 12.40445,13.87035 14.33563,40.7352 -0.50901,42.84625 1.51711,56.72998 -11.15593,94.88608 -8.35507,21.89469 -19.46676,25.21054 -36.02318,26.88055 -65.59968,1.17156 -130.82843,1.7931 -192.73421,0.617 -12.92228,-0.43746 -21.56108,-3.76184 -30.84012,-12.32301 -7.34547,-7.57123 -11.72695,-23.10125 -11.95881,-33.28829 -0.29721,-103.56052 0.85469,-207.25796 0.52244,-298.9327 -3.46693,-43.25637 3.07842,-52.52641 26.6542,-62.20729 19.81169,-4.82865 18.39036,-3.33407 38.46998,-3.88124 34.9552,-0.81924 28.40397,-0.69361 38.94783,-1.04474 8.65293,-19.80132 11.08864,-26.75331 32.81733,-42.23016 8.103,-4.36868 18.38126,-9.86396 32.46853,-13.91089 13.01619,-3.61145 12.76355,-3.69461 29.10565,-6.73803 7.31536,-18.39614 9.06888,-28.59498 23.93479,-44.09588 17.65933,-19.72189 36.37973,-29.19273 57.75322,-34.70805 20.13841,-3.35669 40.38941,-2.93339 57.32695,-0.10419 z"
     fill="#5f4fb9"
     id="path2"
     sodipodi:nodetypes="ccccccccccccccccccccccccccccccccccccccccccccccccccccccccccccccccccccccccccccccccccccccccccccccccccccccccccccccccccccccccccccccccccccccccccccccccccccccccccccccccccccccccccc"
     style="stroke-width:1.02721" />
  <path
     d="m 373.61653,224.5561 c 12.28738,0.49189 22.44087,1.84542 31.38629,10.49535 8.78107,11.72476 8.19693,11.05554 8.51092,23.16523 -0.37922,4.45684 -0.73001,5.80819 -1.2615,10.31036 -0.71166,3.29028 -1.21089,4.33644 -3.99367,6.75669 -27.62402,7.0371 -40.26488,9.66705 -62.10213,24.16721 -15.73834,13.48663 -18.19732,16.01584 -30.38874,38.07734 -17.05423,0.18188 -32.22307,0.25805 -47.73363,0.46501 -16.2831,-0.12153 -30.84057,3.66731 -41.10587,11.11493 -5.39626,4.31447 -5.98141,5.51683 -8.22464,8.49894 -0.83187,-16.99096 -0.66243,-31.49211 -0.40382,-46.93826 0.1197,-16.98603 -0.0357,-32.49928 0.0645,-47.80015 0.0796,-10.63901 0.48172,-20.20516 8.19707,-28.55849 6.36933,-4.71886 8.80163,-5.84396 19.60817,-8.88613 43.65081,-0.57019 89.18773,-0.84809 127.44705,-0.86803 z"
     fill="#8460dd"
     id="path4"
     sodipodi:nodetypes="ccccccccccccccc"
     style="stroke-width:1.02721" />
  <path
     d="m 801.74063,304.34432 c 8.15355,0.59358 18.68164,-0.30169 27.35305,8.89366 2.06354,2.41777 5.99325,8.87789 7.08384,22.78683 0.58448,11.51586 0.68135,12.72385 1.13818,20.17683 -18.80523,-15.33852 -15.68255,-13.55009 -41.97977,-16.82219 -25.30915,-1.05537 -20.36291,-0.63003 -53.9066,-0.11151 -7.51797,-13.79328 -6.49435,-13.88412 -12.76218,-23.5531 -2.92577,-4.20362 -5.50206,-7.8284 -8.21088,-11.42937 46.79697,0.0888 49.4783,0.0184 81.28436,0.0588 z"
     fill="#5649ae"
     id="path6"
     sodipodi:nodetypes="ccccccccc"
     style="stroke-width:1.02721" />
  <path
     d="m 502.70796,763.74423 c 2.55731,-7.81106 7.49628,-5.18629 8.49723,3.41628 -0.69543,14.12797 0.49873,16.96023 -14.79537,24.64077 -12.15447,5.31357 -16.32111,9.76567 -18.64115,10.8914 -12.60588,8.8628 -18.20169,13.02667 -18.00951,5.74911 1.83761,-8.95042 7.20536,-15.40922 24.43366,-25.74063 12.72669,-6.5118 14.13971,-10.21821 18.51514,-18.95693 z"
     fill="#484493"
     id="path12"
     sodipodi:nodetypes="ccccccc"
     style="stroke-width:1.02721" />
  <path
     d="m 549.09694,762.63592 c 6.04104,6.74802 12.59414,12.52137 20.56082,17.1298 10.8511,6.40317 17.37766,14.56747 22.53152,25.60057 0.43255,4.97651 -8.05697,-1.63164 -9.32793,-2.5726 -7.91612,-5.62342 -14.62714,-10.19176 -23.54619,-14.21058 -4.37265,-1.62848 -7.13044,-2.57305 -9.41353,-3.55845 -6.30131,-3.20465 -5.44127,-10.70108 -5.66572,-16.61606 0.34345,-7.98934 0.80484,-9.76299 4.86103,-5.77268 z"
     fill="#464290"
     id="path14"
     sodipodi:nodetypes="cccccccc"
     style="stroke-width:1.02721" />
  <path
     d="m 446.46541,783.7988 c -6.23015,5.99351 -7.07667,6.81608 -13.83949,10.24714 -9.71374,4.44788 -17.60978,6.15388 -31.98092,6.97646 -10.70497,-0.36288 -8.83197,-5.68424 -3.79397,-9.35382 9.80976,-6.20663 18.14313,-9.03163 29.46479,-12.29709 l 12.14351,-2.75094 c 8.61742,-1.60981 15.15283,0.11854 8.00608,7.17825 z"
     fill="#47438e"
     id="path16"
     sodipodi:nodetypes="ccccccc"
     style="stroke-width:1.02721" />
  <path
     d="m 608.95722,775.85744 c 25.8437,3.94556 33.44828,4.93531 50.49813,20.47336 3.39405,3.08164 4.21418,6.31821 -5.48273,4.91553 -13.6661,-1.30879 -38.93485,-7.6888 -48.1338,-17.66088 -6.82302,-6.99286 -4.44731,-8.86522 3.1184,-7.72801 z"
     fill="#464293"
     id="path18"
     sodipodi:nodetypes="ccccc"
     style="stroke-width:1.02721" />
  <path
     d="m 535.03938,803.67214 c 5.87021,5.50012 5.35665,9.52859 5.38654,13.36501 -0.35648,5.5583 -2.3992,7.78549 -6.75983,4.48435 -5.09077,-5.79084 -7.25717,-10.62949 -8.33835,-16.25063 -0.70505,-11.02905 5.66361,-5.40864 9.71164,-1.59873 z"
     fill="#48438e"
     id="path48"
     sodipodi:nodetypes="ccccc"
     style="stroke-width:1.02721" />
</svg>
